<svg width="24" height="24" viewBox="0 0 24 24" fill="none" xmlns="http://www.w3.org/2000/svg">
  <!-- Tampa da Lixeira -->
  <path d="M19 6H5C4.4 6 4 5.6 4 5C4 4.4 4.4 4 5 4H9V3C9 2.4 9.4 2 10 2H14C14.6 2 15 2.4 15 3V4H19C19.6 4 20 4.4 20 5C20 5.6 19.6 6 19 6Z" fill="#FF4D4D"/>
  <!-- Corpo da Lixeira -->
  <path d="M6 8V20C6 21.1 6.9 22 8 22H16C17.1 22 18 21.1 18 20V8H6ZM11 18C11 18.6 10.6 19 10 19C9.4 19 9 18.6 9 18V12C9 11.4 9.4 11 10 11C10.6 11 11 11.4 11 12V18ZM15 18C15 18.6 14.6 19 14 19C13.4 19 13 18.6 13 18V12C13 11.4 13.4 11 14 11C14.6 11 15 11.4 15 12V18Z" fill="#FF4D4D"/>
</svg>